<mxfile host="app.diagrams.net" modified="2021-08-25T02:58:20.297Z" agent="5.0 (Macintosh; Intel Mac OS X 10_15_7) AppleWebKit/537.36 (KHTML, like Gecko) Chrome/86.0.4240.193 Safari/537.36" etag="toESkj4HLr2Qg2mKe-Nr" version="14.9.8" type="github">
  <diagram id="nKVX8SFMybgMvqBtlOaz" name="Page-1">
    <mxGraphModel dx="946" dy="536" grid="1" gridSize="10" guides="1" tooltips="1" connect="1" arrows="1" fold="1" page="1" pageScale="1" pageWidth="827" pageHeight="1169" math="0" shadow="0">
      <root>
        <mxCell id="0" />
        <mxCell id="1" parent="0" />
        <mxCell id="u0iD2JGVzDhUj8aNyE8c-1" style="rounded=0;orthogonalLoop=1;jettySize=auto;html=1;exitX=0;exitY=1;exitDx=0;exitDy=0;entryX=0.7;entryY=0.05;entryDx=0;entryDy=0;entryPerimeter=0;fillColor=#dae8fc;strokeColor=#6c8ebf;" edge="1" parent="1" source="u0iD2JGVzDhUj8aNyE8c-3" target="u0iD2JGVzDhUj8aNyE8c-6">
          <mxGeometry relative="1" as="geometry" />
        </mxCell>
        <mxCell id="u0iD2JGVzDhUj8aNyE8c-2" style="edgeStyle=none;rounded=0;orthogonalLoop=1;jettySize=auto;html=1;exitX=1;exitY=1;exitDx=0;exitDy=0;fillColor=#dae8fc;strokeColor=#6c8ebf;" edge="1" parent="1" source="u0iD2JGVzDhUj8aNyE8c-3" target="u0iD2JGVzDhUj8aNyE8c-8">
          <mxGeometry relative="1" as="geometry" />
        </mxCell>
        <mxCell id="u0iD2JGVzDhUj8aNyE8c-3" value="10" style="ellipse;whiteSpace=wrap;html=1;aspect=fixed;fillColor=#dae8fc;strokeColor=#6c8ebf;" vertex="1" parent="1">
          <mxGeometry x="300" y="120" width="40" height="40" as="geometry" />
        </mxCell>
        <mxCell id="u0iD2JGVzDhUj8aNyE8c-4" style="edgeStyle=none;rounded=0;orthogonalLoop=1;jettySize=auto;html=1;exitX=0;exitY=1;exitDx=0;exitDy=0;entryX=0.5;entryY=0;entryDx=0;entryDy=0;fillColor=#dae8fc;strokeColor=#6c8ebf;" edge="1" parent="1" source="u0iD2JGVzDhUj8aNyE8c-6">
          <mxGeometry relative="1" as="geometry">
            <mxPoint x="220" y="280" as="targetPoint" />
          </mxGeometry>
        </mxCell>
        <mxCell id="u0iD2JGVzDhUj8aNyE8c-5" style="edgeStyle=none;rounded=0;orthogonalLoop=1;jettySize=auto;html=1;exitX=1;exitY=1;exitDx=0;exitDy=0;entryX=0.5;entryY=0;entryDx=0;entryDy=0;fillColor=#dae8fc;strokeColor=#6c8ebf;" edge="1" parent="1" source="u0iD2JGVzDhUj8aNyE8c-6" target="u0iD2JGVzDhUj8aNyE8c-9">
          <mxGeometry relative="1" as="geometry" />
        </mxCell>
        <mxCell id="u0iD2JGVzDhUj8aNyE8c-6" value="5" style="ellipse;whiteSpace=wrap;html=1;aspect=fixed;fillColor=#dae8fc;strokeColor=#6c8ebf;" vertex="1" parent="1">
          <mxGeometry x="240" y="200" width="40" height="40" as="geometry" />
        </mxCell>
        <mxCell id="u0iD2JGVzDhUj8aNyE8c-7" style="edgeStyle=none;rounded=0;orthogonalLoop=1;jettySize=auto;html=1;exitX=0;exitY=1;exitDx=0;exitDy=0;entryX=0.5;entryY=0;entryDx=0;entryDy=0;fillColor=#dae8fc;strokeColor=#6c8ebf;" edge="1" parent="1" source="u0iD2JGVzDhUj8aNyE8c-8" target="u0iD2JGVzDhUj8aNyE8c-10">
          <mxGeometry relative="1" as="geometry" />
        </mxCell>
        <mxCell id="u0iD2JGVzDhUj8aNyE8c-8" value="4" style="ellipse;whiteSpace=wrap;html=1;aspect=fixed;fillColor=#dae8fc;strokeColor=#6c8ebf;" vertex="1" parent="1">
          <mxGeometry x="350" y="200" width="40" height="40" as="geometry" />
        </mxCell>
        <mxCell id="u0iD2JGVzDhUj8aNyE8c-9" value="2" style="ellipse;whiteSpace=wrap;html=1;aspect=fixed;fillColor=#dae8fc;strokeColor=#6c8ebf;" vertex="1" parent="1">
          <mxGeometry x="270" y="280" width="40" height="40" as="geometry" />
        </mxCell>
        <mxCell id="u0iD2JGVzDhUj8aNyE8c-10" value="3" style="ellipse;whiteSpace=wrap;html=1;aspect=fixed;fillColor=#dae8fc;strokeColor=#6c8ebf;" vertex="1" parent="1">
          <mxGeometry x="320" y="280" width="40" height="40" as="geometry" />
        </mxCell>
        <mxCell id="u0iD2JGVzDhUj8aNyE8c-11" value="1" style="ellipse;whiteSpace=wrap;html=1;aspect=fixed;fillColor=#dae8fc;strokeColor=#6c8ebf;" vertex="1" parent="1">
          <mxGeometry x="200" y="280" width="40" height="40" as="geometry" />
        </mxCell>
      </root>
    </mxGraphModel>
  </diagram>
</mxfile>
